<?xml version="1.0" encoding="UTF-8" standalone="no"?>
<svg
   xmlns:dc="http://purl.org/dc/elements/1.1/"
   xmlns:cc="http://creativecommons.org/ns#"
   xmlns:rdf="http://www.w3.org/1999/02/22-rdf-syntax-ns#"
   xmlns:svg="http://www.w3.org/2000/svg"
   xmlns="http://www.w3.org/2000/svg"
   xmlns:sodipodi="http://sodipodi.sourceforge.net/DTD/sodipodi-0.dtd"
   xmlns:inkscape="http://www.inkscape.org/namespaces/inkscape"
   viewBox="0 0 512 512"
   version="1.1"
   id="svg19"
   sodipodi:docname="logo.svg"
   width="512"
   height="512"
   inkscape:version="1.0.1 (3bc2e813f5, 2020-09-07)"
   inkscape:export-filename="/home/nebulon/projects/yellowtent/apps/nodebb-app/logo.png"
   inkscape:export-xdpi="96"
   inkscape:export-ydpi="96">
  <metadata
     id="metadata23">
    <rdf:RDF>
      <cc:Work
         rdf:about="">
        <dc:format>image/svg+xml</dc:format>
        <dc:type
           rdf:resource="http://purl.org/dc/dcmitype/StillImage" />
        <dc:title></dc:title>
      </cc:Work>
    </rdf:RDF>
  </metadata>
  <sodipodi:namedview
     pagecolor="#ffffff"
     bordercolor="#666666"
     borderopacity="1"
     objecttolerance="10"
     gridtolerance="10"
     guidetolerance="10"
     inkscape:pageopacity="0"
     inkscape:pageshadow="2"
     inkscape:window-width="1440"
     inkscape:window-height="755"
     id="namedview21"
     showgrid="false"
     inkscape:zoom="0.47877022"
     inkscape:cx="79.813386"
     inkscape:cy="260.75231"
     inkscape:window-x="0"
     inkscape:window-y="0"
     inkscape:window-maximized="1"
     inkscape:current-layer="svg19"
     inkscape:document-rotation="0" />
  <defs
     id="defs15">
    <radialGradient
       id="a"
       cx="83.12965"
       cy="8.4420927"
       r="40.548117"
       fx="83.12965"
       fy="8.4420927"
       gradientTransform="matrix(20.924161,0,0,13.451247,-1405.1183,-18.861312)"
       gradientUnits="userSpaceOnUse">
      <stop
         offset="0%"
         stop-color="#2A6CBE"
         id="stop2" />
      <stop
         offset="38.688%"
         stop-color="#2062BC"
         id="stop4" />
      <stop
         offset="49.182%"
         stop-color="#1F5FBC"
         id="stop6" />
      <stop
         offset="66.583%"
         stop-color="#1C5ABD"
         id="stop8" />
      <stop
         offset="85.354%"
         stop-color="#1956BC"
         id="stop10" />
      <stop
         offset="100%"
         stop-color="#1851BE"
         id="stop12" />
    </radialGradient>
  </defs>
  <path
     fill="url(#a)"
     fill-rule="nonzero"
     d="M 250.02478,94.668362 V 326.09165 c -0.0453,38.54407 -0.66033,65.09388 -0.66033,91.23999 H 122.44764 c -75.806717,0 -117.407948,-35.49296 -117.407948,-91.26762 0,-37.33674 21.262846,-64.53265 54.543847,-75.59539 -27.271923,-11.52368 -43.912432,-37.33674 -43.912432,-69.14214 0,-51.62612 41.139017,-86.658128 113.247833,-86.658128 z m 133.05639,0 c 72.10874,0 113.24777,35.032008 113.24777,86.658128 0,31.8054 -16.64042,57.61846 -43.91238,69.14214 33.28102,11.06274 54.54375,38.25865 54.54375,75.59539 0,55.77466 -41.60124,91.26762 -117.40788,91.26762 H 262.6356 c 0,-26.14611 -0.61553,-52.69592 -0.66033,-91.23999 V 94.668362 Z M 184.8495,279.04738 h -57.31726 c -37.903361,0 -56.855039,14.28937 -56.855039,42.40717 0,29.50063 17.56497,44.25097 52.232679,44.25097 h 30.04534 c 24.03628,0 31.89428,-11.5237 31.89428,-46.55571 z m 199.61826,0 H 327.1505 v 40.10243 c 0,35.03201 7.85802,46.55571 31.89443,46.55571 h 30.0453 c 34.66761,0 52.2326,-14.75032 52.2326,-44.25097 0,-28.1178 -18.95158,-42.40717 -56.85507,-42.40717 z M 185.31175,146.29449 h -52.69491 c -33.743238,0 -51.308208,15.21126 -51.308208,41.02434 0,25.81306 17.56497,41.02431 51.308208,41.02431 h 52.69491 z m 194.07151,0 H 326.6883 v 82.04865 h 52.69496 c 33.74322,0 51.30821,-15.21125 51.30821,-41.02431 0,-25.81308 -17.56499,-41.02434 -51.30821,-41.02434 z"
     id="path17"
     style="fill:url(#a);stroke-width:16.7767" />
</svg>
